<?xml version="1.0" encoding="UTF-8"?>
<!-- Created with Inkscape (http://www.inkscape.org/) -->
<svg width="42mm" height="23.445mm" version="1.1" viewBox="0 0 42 23.445" xmlns="http://www.w3.org/2000/svg">
 <g transform="translate(-43.075 -68.182)">
  <g fill="#fff" stroke-width=".26458" aria-label="Jupi">
   <path d="m53.773 73.618q0.66039 0 0.96518 0.11853 0.32173 0.1016 0.45719 0.35559 0.18626 0.38946 0.18626 1.0498v6.5531q0 1.778-1.2869 3.1495-1.2869 1.3546-3.285 1.3546-1.1176 0-1.9812-0.49106-0.77892-0.42332-1.0837-0.76198l-0.13546-0.13546q-0.59266-0.62652-0.59266-1.0668 0-0.45719 0.59266-1.0668t1.0498-0.60959 1.016 0.55879 1.2022 0.55879q0.66039 0 1.0837-0.44026t0.42332-1.1684v-6.3329q0-1.016 0.33866-1.3038 0.38946-0.32173 1.0498-0.32173z"/>
   <path d="m60.699 85.996q-1.7102 0-2.8447-1.2869-1.1176-1.3038-1.1176-3.1665v-2.9633q0-0.40639 0.01693-0.59266 0.03387-0.18626 0.1524-0.44026 0.23706-0.45719 1.3208-0.45719 1.1853 0 1.3885 0.64345 0.1016 0.27093 0.1016 0.86358v2.9633q0 0.69425 0.38946 1.0837 0.40639 0.38946 1.0668 0.38946 0.67732 0 1.0837-0.40639 0.42332-0.40639 0.42332-1.0668v-2.9971q0-0.38946 0.01693-0.57572 0.03387-0.2032 0.16933-0.45719 0.22013-0.44026 1.3038-0.44026 1.0668 0 1.3038 0.45719 0.11853 0.254 0.13546 0.45719 0.03387 0.18626 0.03387 0.57572v5.9943q0 0.37253-0.03387 0.57572-0.01693 0.18626-0.1524 0.42332-0.254 0.44026-1.3038 0.44026-1.0329 0-1.27-0.40639-0.16933-0.28786-0.16933-0.69425-0.06773 0.11853-0.30479 0.33866t-0.45719 0.37253q-0.57572 0.37253-1.253 0.37253z"/>
   <path d="m66.998 88.451v-9.8889q0-0.38946 0.01693-0.57572 0.03387-0.18626 0.1524-0.42332 0.23706-0.45719 1.1345-0.45719t1.2022 0.23706q0.32173 0.22013 0.37253 0.66039 0.64345-0.88052 2.015-0.88052 1.3885 0 2.6246 1.3038t1.2361 3.031-1.2361 3.031q-1.2192 1.3038-2.6077 1.3038t-2.015-0.77892v3.4205q0 0.38946-0.03387 0.57572-0.01693 0.18626-0.1524 0.42332-0.11853 0.254-0.42332 0.35559t-0.82972 0.1016-0.84665-0.1016q-0.30479-0.1016-0.44026-0.33866-0.11853-0.23706-0.1524-0.42332-0.01693-0.18626-0.01693-0.57572zm3.3527-7.9754q-0.38946 0.45719-0.38946 0.99905t0.38946 0.99905q0.40639 0.44026 1.016 0.44026 0.62652 0 1.0498-0.44026 0.44026-0.44026 0.44026-0.99905t-0.40639-0.99905q-0.40639-0.45719-1.0668-0.45719-0.64345 0-1.0329 0.45719z"/>
   <path d="m76.853 78.596q0-0.38946 0.01693-0.57572 0.03387-0.2032 0.1524-0.45719 0.23706-0.44026 1.3208-0.44026 0.81278 0 1.1514 0.28786 0.28786 0.23706 0.30479 0.72812 0.01693 0.16933 0.01693 0.49106v5.9266q0 0.38946-0.03387 0.59266-0.01693 0.18626-0.1524 0.44026-0.22013 0.44026-1.3038 0.44026-1.0668 0-1.3038-0.45719-0.11853-0.254-0.1524-0.44026-0.01693-0.18626-0.01693-0.59266zm2.777-3.1326q-0.11853 0.23706-0.44026 0.33866t-0.86358 0.1016q-0.52492 0-0.84665-0.1016t-0.45719-0.35559q-0.11853-0.254-0.1524-0.44026-0.01693-0.2032-0.01693-0.59266t0.01693-0.57572q0.03387-0.2032 0.1524-0.44026 0.23706-0.45719 1.3208-0.45719 1.0668 0 1.2869 0.45719 0.13546 0.254 0.1524 0.45719 0.03387 0.18626 0.03387 0.57572t-0.03387 0.59266q-0.01693 0.18626-0.1524 0.44026z"/>
  </g>
  <g transform="translate(-1.9417 -1.515)" fill="#942dff" stroke-linejoin="round">
   <path d="m45.017 69.697h2v23.437h-2z" stroke-width="1.1817"/>
   <path transform="rotate(90)" d="m69.698-55.017h2v10h-2z" stroke-width=".77187"/>
   <path transform="rotate(90)" d="m91.141-55.017h2v10h-2z" stroke-width=".77187"/>
  </g>
  <g transform="rotate(180 65.046 80.662)" fill="#942dff" stroke-linejoin="round">
   <path d="m45.017 69.697h2v23.437h-2z" stroke-width="1.1817"/>
   <path transform="rotate(90)" d="m69.698-55.017h2v10h-2z" stroke-width=".77187"/>
   <path transform="rotate(90)" d="m91.141-55.017h2v10h-2z" stroke-width=".77187"/>
  </g>
 </g>
</svg>
